# xmcd
# 
# Track frame offsets:
#     150
#     25719
#     44027
#     62072
#     82207
#     102107
#     129020
#     147480
#     164740
#     190655
#     207165
#     224727
#     243775
# 
# Disc length: 3758
# 
# Revision: 0
# Processed by: cddbd v1.5.2PL0 Copyright (c) Steve Scherf et al.
# Submitted via: BonkEnc v1.0.8
# 
DISCID=bf0eac0d
DTITLE=JAMIROQUAI - JAMIROQUAI   TRAVELLING WITHOUT MOVING
DYEAR=1996
DGENRE=Jazz
TTITLE0=VIRTUAL INSANITY
TTITLE1=COSMIC GIRL
TTITLE2=USE THE FORCE
TTITLE3=EVERYDAY
TTITLE4=ALRIGHT
TTITLE5=HIGH TIMES
TTITLE6=DRIFTING ALONG
TTITLE7=DIDJERAMA
TTITLE8=DIDJITAL VIBRATIONS
TTITLE9=TRAVELLING WITHOUT MOVING
TTITLE10=YOU ARE MY LOVE
TTITLE11=SPEND A LIFETIME
TTITLE12=FUNKTION (Ruff Mix)
EXTD=YEAR: 1996
EXTT0=
EXTT1=
EXTT2=
EXTT3=
EXTT4=
EXTT5=
EXTT6=
EXTT7=
EXTT8=
EXTT9=
EXTT10=
EXTT11=
EXTT12=
PLAYORDER=
